<?xml version="1.0" encoding="UTF-8"?>
<svg width="32px" height="32px" viewBox="0 0 32 32" version="1.1" xmlns="http://www.w3.org/2000/svg" xmlns:xlink="http://www.w3.org/1999/xlink">
    <!-- Generator: Sketch 63.1 (92452) - https://sketch.com -->
    <title>Group 3</title>
    <desc>Created with Sketch.</desc>
    <g id="Dev-Handoff" stroke="none" stroke-width="1" fill="none" fill-rule="evenodd">
        <g id="1.3" transform="translate(-14.000000, -609.000000)">
            <g id="Group-3" transform="translate(15.000000, 610.000000)">
                <g id="user-copy">
                    <circle id="Oval-Copy-7" fill="#4A4A4A" cx="15" cy="15" r="15"></circle>
                    <path d="M15,19 C16.6485271,19 18.0758315,18.4087238 19.242382,17.2421363 C20.4085524,16.0757389 21,14.6485793 21,12.99981 C21,11.3516108 20.4087425,9.92426112 19.242192,8.75748362 C18.0756414,7.59127627 16.648337,7 15,7 C13.3512829,7 11.9241685,7.59127627 10.757808,8.75767367 C9.59144758,9.92407108 9,11.3514207 9,12.99981 C9,14.6485793 9.59144758,16.0759289 10.757808,17.2423263 C11.9245486,18.4085337 13.351853,19 15,19 Z" id="Shape" fill="#FFFFFF" fill-rule="nonzero"></path>
                    <path d="M23.7581497,27.4683525 C23.1030088,28.0277065 19.5816122,30 18.4473454,30 C13.0173593,29.4458251 9.92419925,29.1687377 9.16786537,29.1687377 C8.03336454,29.1687377 4.28157717,26.3583195 4.28157717,25.3668518 C4.28157717,24.851171 4.01895905,25.8550268 4.0568772,25.3662219 C4.09385904,24.8866556 4.16946123,24.3598465 4.28157717,23.8000726 C4.39228871,23.2472275 4.53319434,22.7283972 4.70078308,22.2586993 C4.86158395,21.8083185 5.08090053,21.3623471 5.3528811,20.9327531 C5.61245636,20.523316 5.91112014,20.17204 6.2406801,19.8890034 C6.54894037,19.6242341 6.93748407,19.4075474 7.39531027,19.2450324 C7.81872927,19.0946955 8.29457826,19.0123881 8.81115416,19 C8.87411695,19.0300254 8.98623289,19.0873466 9.16786537,19.1935903 C9.53745003,19.4096471 9.96344373,19.6561492 10.4343774,19.9259578 C10.9652311,20.2295711 11.6491616,20.503789 12.4662737,20.7404226 C13.3016427,20.9827254 14.1536301,21.1057665 14.9992978,21.1057665 C15.8449656,21.1057665 16.697187,20.9827254 17.5320879,20.7406326 C18.3499021,20.503579 19.0335986,20.2295711 19.5651545,19.9255378 C20.0470891,19.6492203 20.4611456,19.409857 20.8307303,19.1935903 C21.0123628,19.0875566 21.1244787,19.0300254 21.1874415,19 C21.7042514,19.0123881 22.1801004,19.0946955 22.6037535,19.2450324 C23.0613457,19.4075474 23.4498893,19.6244441 23.7581497,19.8890034 C24.0877096,20.17183 24.3863733,20.523106 24.6459486,20.932963 C24.9181633,21.3623471 25.1377138,21.8085285 25.2982807,22.2584894 C25.4661035,22.7288171 25.6072432,23.2474375 25.7177207,23.7998626 C25.8296025,24.3606864 25.9054388,24.8877055 25.9424207,25.3664319 C25.9422646,26.0278303 25.2141743,26.7284705 23.7581497,27.4683525 Z" id="Shape" fill="#FFFFFF" fill-rule="nonzero"></path>
                </g>
                <circle id="Oval-Copy-8" stroke="#4A4A4A" stroke-width="2" cx="15" cy="15" r="15"></circle>
                <g id="Group" transform="translate(6.462101, 4.500000)" fill="#E5EEF5" fill-rule="nonzero">
                    <path d="M16.5206372,9.5555038 C16.227146,9.5555038 15.9891622,9.3178445 15.9891622,9.0246191 L15.9891622,8.49373439 C15.9891622,4.38912 12.6580516,1.06170928 8.54887319,1.06170928 C4.43969474,1.06170928 1.10858416,4.38918014 1.10858416,8.49373439 L1.10858416,9.0246191 C1.10858416,9.31778436 0.870660592,9.5555038 0.577109144,9.5555038 C0.283617899,9.5555038 0.0456341259,9.3178445 0.0456341259,9.0246191 L0.0456341259,8.49373439 C0.0456341259,3.80278947 3.85271225,0 8.54887319,0 C10.2262625,0 11.7902152,0.485158985 13.1077655,1.32265902 C15.4789406,2.8298949 17.0520521,5.4783157 17.0520521,8.49373439 L17.0520521,9.0246191 C17.0520521,9.16539856 16.996063,9.30046506 16.8963662,9.39999091 C16.7967297,9.49957689 16.6615732,9.5555038 16.5206372,9.5555038 Z" id="Path"></path>
                </g>
                <g id="Group" transform="translate(6.000000, 10.317823)" fill="#E5EEF5" fill-rule="nonzero">
                    <path d="M17.3390208,5.51512135 L16.8056874,5.51512135 C16.2534027,5.51512135 15.8056874,5.0674061 15.8056874,4.51512135 L15.8056874,1.01501569 C15.8056874,0.462730945 16.2534027,0.0150156947 16.8056874,0.0150156947 L17.3390208,0.0150156947 L17.3390208,0.0150156947 C17.762457,0.0150156947 18.1056874,0.507480635 18.1056874,1.11502436 L18.1056874,4.41511268 C18.1056874,5.02265641 17.7624136,5.51512135 17.3390208,5.51512135 Z" id="Path"></path>
                    <path d="M1.53333333,5.51512135 L1,5.51512135 C0.44771525,5.51512135 9.11059234e-14,5.0674061 9.1038288e-14,4.51512135 L9.1038288e-14,1.01501569 C9.09706526e-14,0.462730945 0.44771525,0.0150156947 1,0.0150156947 L1.53333333,0.0150156947 L1.53333333,0.0150156947 C1.95676956,0.0150156947 2.3,0.507480635 2.3,1.11502436 L2.3,4.41511268 C2.3,5.02265641 1.95672614,5.51512135 1.53333333,5.51512135 Z" id="Path-Copy"></path>
                </g>
            </g>
        </g>
    </g>
</svg>